<svg width="240" height="241" viewBox="0 0 240 241" fill="none" xmlns="http://www.w3.org/2000/svg">
<path fill-rule="evenodd" clip-rule="evenodd" d="M30 110.25C30 72.54 30 53.68 41.72 41.97C53.43 30.25 72.29 30.25 110 30.25H130C167.71 30.25 186.56 30.26 198.28 41.97C210 53.68 210 72.54 210 110.25V130.25C210 138.98 210 146.69 209.85 153.54L184.57 138.79L184.35 138.66L184.312 138.638C179.379 135.768 175.371 133.436 171.9 131.84C168.26 130.18 164.84 129.16 161.06 129.21C160.32 129.223 159.577 129.267 158.83 129.34C155.07 129.73 151.77 131.15 148.34 133.22C145.05 135.21 141.29 138.03 136.69 141.48L136.49 141.63C132.11 144.91 129.22 147.07 126.9 148.37C124.68 149.64 123.78 149.62 123.3 149.54C123.02 149.493 122.747 149.42 122.48 149.32C122.02 149.15 121.24 148.71 119.94 146.53C118.6 144.27 117.18 140.99 115.04 135.99L114.9 135.64C110.6 125.6 107.16 117.6 103.7 111.8C100.16 105.85 96.1 101.35 90.12 99.4C88.7287 98.9422 87.2999 98.6076 85.85 98.4C79.63 97.52 73.99 99.76 68.19 103.53C62.53 107.22 55.92 112.88 47.63 119.98L47.34 120.23L30 135.09V110.25ZM209.41 164.864L209.42 164.87L209.41 164.86C209.41 164.861 209.41 164.863 209.41 164.864ZM209.41 164.864L179.52 147.43C174.32 144.39 170.72 142.3 167.75 140.94C164.87 139.63 162.96 139.19 161.19 139.21C160.737 139.21 160.29 139.237 159.85 139.29C158.09 139.47 156.25 140.13 153.52 141.78C150.706 143.476 147.365 145.979 142.523 149.606L142.49 149.63L142.22 149.83C138.19 152.86 134.77 155.43 131.82 157.09C128.72 158.83 125.34 160.06 121.55 159.39C120.713 159.24 119.89 159.019 119.09 158.73C115.47 157.43 113.16 154.69 111.35 151.63C109.63 148.73 107.95 144.83 105.98 140.23L105.85 139.93C101.36 129.46 98.19 122.08 95.11 116.92C92.08 111.83 89.63 109.76 87.01 108.9C86.1759 108.625 85.3192 108.425 84.45 108.3C81.72 107.92 78.6 108.7 73.64 111.92C68.6 115.2 62.49 120.42 53.84 127.82L30.06 148.22C30.36 174.28 32.03 188.85 41.72 198.53C53.43 210.25 72.29 210.25 110 210.25H130C167.71 210.25 186.57 210.25 198.28 198.53C205.679 191.131 208.41 180.902 209.41 164.864ZM180 80.25C180 91.2957 171.046 100.25 160 100.25C148.954 100.25 140 91.2957 140 80.25C140 69.2043 148.954 60.25 160 60.25C171.046 60.25 180 69.2043 180 80.25Z" fill="#F4F4F4"/>
</svg>
