<svg width="128" height="128" viewBox="0 0 128 128" fill="none" xmlns="http://www.w3.org/2000/svg">
<path d="M101.653 47.26C108.406 51.224 112.944 58.548 112.959 66.932C112.983 79.554 102.746 89.802 90.0993 89.822C77.4513 89.845 67.1793 79.633 67.1563 67.012C67.1413 58.627 71.6533 51.288 78.3943 47.3L84.9743 58.398C85.0514 58.5338 85.074 58.6938 85.0376 58.8457C85.0013 58.9975 84.9086 59.1299 84.7783 59.216C83.5078 60.0749 82.4679 61.233 81.7502 62.5882C81.0324 63.9435 80.6588 65.4544 80.6623 66.988C80.6723 72.165 84.8873 76.355 90.0753 76.346C95.2643 76.336 99.4623 72.133 99.4533 66.956C99.4516 65.4223 99.0729 63.9126 98.3504 62.5597C97.628 61.2069 96.5839 60.0524 95.3103 59.198C95.1803 59.1119 95.0877 58.9799 95.0508 58.8285C95.0139 58.677 95.0355 58.5172 95.1113 58.381L101.653 47.26Z" fill="#128DFF"/>
<path d="M51.1074 47.1279C47.691 45.2183 43.8412 44.2187 39.9274 44.2249C27.2774 44.2249 17.0254 54.4549 17.0254 67.0769C17.0254 79.6969 27.2764 89.9269 39.9264 89.9269C52.6364 89.9269 63.1394 79.1609 62.8194 66.4899H49.9294C49.766 66.4925 49.6103 66.5595 49.496 66.6764C49.3818 66.7932 49.3183 66.9505 49.3194 67.1139C49.2874 72.1619 45.0654 76.4509 39.9264 76.4509C34.7354 76.4509 30.5314 72.2529 30.5314 67.0769C30.5314 61.8969 34.7354 57.7019 39.9264 57.7019C41.2834 57.7019 42.5764 57.9879 43.7414 58.5069C43.8788 58.5696 44.0343 58.5801 44.1789 58.5363C44.3234 58.4924 44.447 58.3974 44.5264 58.2689L51.1074 47.1279Z" fill="#8BDA67"/>
<path d="M52.9595 43.542C46.2155 39.566 41.6895 32.236 41.6895 23.852C41.6895 11.23 51.9435 1 64.5895 1C77.2355 1 87.4915 11.23 87.4915 23.852C87.4915 32.237 82.9655 39.566 76.2215 43.542L69.6585 32.435C69.5815 32.2989 69.5594 32.1387 69.5966 31.9869C69.6337 31.8351 69.7274 31.7031 69.8585 31.618C71.1295 30.7603 72.1706 29.6036 72.8901 28.2495C73.6097 26.8954 73.9858 25.3854 73.9855 23.852C73.9855 18.674 69.7785 14.477 64.5905 14.477C59.4015 14.477 55.1955 18.674 55.1955 23.852C55.1951 25.3855 55.5713 26.8956 56.2911 28.2497C57.0109 29.6038 58.0521 30.7604 59.3235 31.618C59.5935 31.799 59.6865 32.158 59.5215 32.436L52.9595 43.542Z" fill="#FF2A44"/>
<path d="M26.1901 102.414C29.1431 102.414 31.1911 103.123 32.3341 104.541C33.4971 105.959 34.0771 108.546 34.0771 112.301C34.0771 116.057 33.4971 118.644 32.3341 120.062C31.1911 121.48 29.1441 122.189 26.1901 122.189C23.2551 122.189 21.2071 121.481 20.0471 120.062C18.9011 118.645 18.3301 116.057 18.3301 112.302C18.3301 108.546 18.9011 105.959 20.0471 104.542C21.2071 103.124 23.2551 102.414 26.1901 102.414ZM26.1901 105.37C24.5851 105.37 23.4781 105.868 22.8681 106.861C22.2791 107.837 21.9831 109.651 21.9831 112.301C21.9831 114.953 22.2791 116.775 22.8681 117.771C23.4781 118.747 24.5861 119.234 26.1911 119.234C27.8141 119.234 28.9211 118.747 29.5131 117.771C30.1191 116.775 30.4231 114.953 30.4231 112.301C30.4231 109.651 30.1191 107.837 29.5131 106.861C28.9201 105.868 27.8131 105.37 26.1901 105.37ZM39.0371 108.297L39.2571 110.315C39.8871 109.615 40.7161 109.045 41.7501 108.602C42.8011 108.159 43.8251 107.939 44.8201 107.939C47.9031 107.939 49.4441 110.351 49.4441 115.176C49.4441 117.733 49.0181 119.538 48.1711 120.586C47.3401 121.639 46.0311 122.163 44.2401 122.163C42.4121 122.163 40.8451 121.721 39.5351 120.836C39.6091 121.776 39.6381 122.714 39.6181 123.654V127.217H36.2681V108.297H39.0371ZM39.6171 112.384V118.847C41.3521 119.234 42.5621 119.427 43.2441 119.427C44.2791 119.427 44.9871 119.151 45.3741 118.601C45.7811 118.029 45.9841 116.878 45.9841 115.146C45.9841 113.453 45.7981 112.293 45.4291 111.666C45.0811 111.021 44.4631 110.699 43.5751 110.699C42.9651 110.699 42.3681 110.839 41.7761 111.115C41.2051 111.373 40.4851 111.795 39.6171 112.384ZM60.3501 116.474H54.8131C54.9431 117.651 55.2761 118.442 55.8091 118.847C56.3461 119.234 57.2221 119.427 58.4401 119.427C59.8231 119.427 61.4501 119.318 63.3121 119.096L63.6171 121.252C62.3431 121.859 60.4801 122.163 58.0241 122.163C55.5721 122.163 53.8261 121.618 52.7951 120.534C51.7601 119.447 51.2451 117.613 51.2451 115.035C51.2451 112.405 51.7521 110.562 52.7661 109.513C53.7821 108.446 55.4611 107.91 57.8041 107.91C59.9641 107.91 61.5311 108.306 62.5101 109.1C63.4881 109.873 63.9751 111.042 63.9751 112.607C63.9751 115.185 62.7671 116.474 60.3511 116.474H60.3501ZM54.7581 114.124H59.4101C60.2221 114.124 60.6261 113.599 60.6261 112.551C60.6261 111.815 60.4321 111.299 60.0461 111.004C59.6591 110.712 58.9561 110.561 57.9431 110.561C56.7621 110.561 55.9421 110.811 55.4791 111.309C55.0361 111.786 54.7961 112.726 54.7581 114.124ZM68.6851 108.297L68.9081 110.287C71.0121 108.704 72.9681 107.91 74.7761 107.91C75.9751 107.91 76.8971 108.233 77.5421 108.877C78.1901 109.522 78.5121 110.453 78.5121 111.667V121.832H75.1371V112.688C75.1371 111.935 75.0341 111.428 74.8321 111.171C74.6271 110.892 74.2491 110.755 73.6961 110.755C73.0691 110.755 72.4241 110.884 71.7591 111.141C71.1141 111.399 70.2741 111.824 69.2391 112.413V121.832H65.8641V108.296L68.6851 108.297ZM93.9631 118.847L94.2651 121.445C92.7351 121.922 90.7781 122.163 88.4001 122.163C85.5371 122.163 83.5271 121.424 82.3641 119.953C81.2011 118.481 80.6211 115.928 80.6211 112.301C80.6211 108.674 81.2011 106.126 82.3641 104.652C83.5271 103.178 85.5371 102.443 88.3991 102.443C90.5201 102.443 92.3461 102.646 93.8781 103.049L93.5471 105.674C91.8343 105.542 90.117 105.477 88.3991 105.482C86.8121 105.482 85.7221 105.968 85.1331 106.943C84.5591 107.901 84.2741 109.688 84.2741 112.301C84.2741 114.918 84.5591 116.711 85.1331 117.689C85.7221 118.644 86.8121 119.125 88.3991 119.125C90.7401 119.125 92.5951 119.031 93.9631 118.847ZM111.682 102.775L106.285 120.865C106.101 121.507 105.675 121.832 105.01 121.832H101.748C101.451 121.832 101.181 121.747 100.944 121.582C100.723 121.397 100.567 121.146 100.499 120.865L95.0761 102.775H98.6441L102.547 117.08C102.603 117.302 102.687 117.66 102.799 118.158C102.907 118.636 102.992 118.987 103.047 119.207H103.739C103.848 118.618 104.024 117.909 104.264 117.08L108.11 102.774L111.682 102.775Z" fill="black"/>
</svg>
