<svg width="128" height="128" viewBox="0 0 128 128" fill="none" xmlns="http://www.w3.org/2000/svg">
<path fill-rule="evenodd" clip-rule="evenodd" d="M27.3622 76.605C21.2842 76.605 18.2682 72.96 17.0852 69.152C18.4052 75.347 25.5342 81.382 48.0302 84.062C69.2882 86.613 83.1202 80.214 87.8002 77.238C87.8002 77.238 90.9562 75.871 89.0662 77.98C89.0662 77.98 75.6682 90.109 49.4572 90.265C23.1952 90.394 2.36722 77.402 2.47322 64.222C2.34822 51.097 23.1962 38.077 49.4572 38.183C75.7192 38.308 89.0662 50.464 89.0662 50.464C90.9612 52.569 87.8002 51.214 87.8002 51.214C83.1322 48.245 69.3432 42.394 48.0302 44.39C27.0962 46.37 20.2602 53.367 17.9442 58.038C17.0732 59.851 16.6742 61.561 16.5772 63.28C17.1432 58.784 19.9912 53.514 27.3432 53.514C35.6832 53.514 38.2142 60.338 38.2142 65.01C38.2142 69.737 35.6672 76.561 27.3432 76.561L27.3622 76.605ZM111.858 72.066H122.944V76.027H107.174V54.137H111.834V72.039L111.858 72.066ZM94.7452 64.238H104.054V76.054H100.949L100.484 73.308C99.3042 74.652 97.5932 76.632 93.5432 76.632C88.1722 76.632 83.3162 72.855 83.3162 65.187C83.3162 59.203 86.7032 53.582 94.2422 53.582C101.074 53.582 103.765 57.941 104.035 60.934H99.3752C99.3752 60.082 97.7932 57.336 94.5002 57.336C91.1802 57.336 88.0942 59.594 88.0942 65.211C88.0942 71.199 91.4142 72.723 94.6062 72.723C95.6292 72.723 99.0472 72.328 99.9892 67.907H94.8022V64.22L94.7452 64.238ZM27.4722 56.207C22.6282 56.207 19.7222 59.953 19.7222 65.133C19.7222 70.285 22.6402 74.059 27.4722 74.059C32.3162 74.059 35.2222 70.309 35.2222 65.133C35.2222 59.981 32.3042 56.207 27.4722 56.207ZM40.0112 62.039H42.2732V64.016H42.3282C42.8982 63.211 43.9882 61.629 46.5782 61.629C50.3672 61.629 53.0902 64.781 53.0902 68.719C53.0902 72.067 51.1252 76.438 46.2542 76.438C44.3442 76.438 43.0902 75.555 42.4692 74.563H42.4142V81.598H40.0122L40.0112 62.039ZM46.0932 74.426C48.7102 74.426 50.4842 72.199 50.4842 69.125C50.4842 67.328 49.7462 63.77 46.0392 63.77C42.5782 63.77 42.1952 67.434 42.1952 69.704C42.1952 73.419 44.5702 74.415 46.0932 74.415V74.426ZM67.6202 71.672C67.5382 72.336 66.8822 74.324 65.0852 75.496C64.4292 75.926 63.5032 76.465 61.2142 76.465C57.2062 76.465 54.8122 73.492 54.8122 69.43C54.8122 65.09 56.9372 61.657 61.6482 61.657C65.7652 61.657 67.7812 64.872 67.7812 69.848H57.3392C57.3392 72.77 58.7302 74.453 61.4842 74.453C63.7462 74.453 65.0862 72.742 65.1682 71.695H67.5662L67.6202 71.672ZM65.0812 67.953C64.9442 65.785 64.0152 63.777 61.0972 63.777C58.8902 63.777 57.1482 65.785 57.1482 67.953H65.0812ZM81.0652 76.039H78.6632V67.426C78.6632 64.996 77.9522 63.762 75.6122 63.762C74.2492 63.762 71.8502 64.621 71.8502 68.418V76.031H69.4482V62.016H71.7142V63.993H71.7692C72.2892 63.243 73.6212 61.61 76.0742 61.61C78.2812 61.61 81.0662 62.493 81.0662 66.485V76.04" fill="#B3B3B3"/>
<path fill-rule="evenodd" clip-rule="evenodd" d="M26.2898 75.031C20.1528 75.031 17.0868 71.386 15.9028 67.578C17.2388 73.769 24.4578 79.808 47.1728 82.488C68.6458 85.031 82.6378 78.64 87.3718 75.66C87.3718 75.66 90.5628 74.297 88.6488 76.406C88.6488 76.406 75.1408 88.535 48.5548 88.691C22.0208 88.816 0.926842 75.828 1.08684 62.648C0.957842 49.523 22.0208 36.504 48.5558 36.609C75.0868 36.734 88.6498 48.89 88.6498 48.89C90.5638 50.995 87.3728 49.64 87.3728 49.64C82.6538 46.671 68.6968 40.82 47.1738 42.812C25.9668 44.796 19.0798 51.792 16.7638 56.464C15.9516 58.0993 15.481 59.8829 15.3808 61.706C15.9508 57.21 18.8298 51.936 26.2518 51.936C34.6498 51.936 37.2318 58.764 37.2318 63.487C37.2318 68.21 34.6578 74.987 26.2518 74.987L26.2898 75.031ZM111.86 70.488H123.055V74.453H107.125V52.555H111.832V70.465L111.86 70.488ZM94.5828 62.664H104.001V74.477H100.864L100.395 71.739C99.1998 73.079 97.4688 75.063 93.3438 75.063C87.9068 75.063 82.9568 71.286 82.9568 63.618C82.9568 57.634 86.3788 52.013 93.9878 52.013C100.879 52.013 103.621 56.372 103.89 59.365H99.1828C99.1828 58.513 97.5778 55.767 94.2528 55.767C90.8938 55.767 87.7918 58.025 87.7918 63.642C87.7918 69.63 91.1508 71.154 94.3578 71.154C95.3928 71.154 98.8458 70.759 99.7958 66.338H94.5538V62.651L94.5828 62.664ZM26.2348 54.633C21.3368 54.633 18.3798 58.379 18.3798 63.559C18.3798 68.707 21.3288 72.485 26.2348 72.485C31.1328 72.485 34.0938 68.735 34.0938 63.559C34.0938 58.407 31.1448 54.633 26.2348 54.633ZM38.9378 60.461H41.2228V62.441H41.2778C41.8598 61.636 42.9578 60.054 45.5788 60.054C49.4108 60.054 52.1448 63.206 52.1448 67.144C52.1448 70.488 50.1568 74.863 45.2538 74.863C43.3238 74.863 42.0588 73.98 41.4218 72.988H41.3668V80.023H38.9408V60.488L38.9378 60.461ZM45.0708 72.856C47.7188 72.856 49.5118 70.626 49.5118 67.551C49.5118 65.75 48.7618 62.192 45.0158 62.192C41.5198 62.192 41.1328 65.86 41.1328 68.13C41.1328 71.845 43.5308 72.841 45.0708 72.841V72.856ZM66.8128 70.094C66.7308 70.766 66.0708 72.746 64.2508 73.922C63.5908 74.352 62.6528 74.891 60.3408 74.891C56.2858 74.891 53.8838 71.918 53.8838 67.852C53.8838 63.516 56.0358 60.082 60.8248 60.082C64.9848 60.082 67.0128 63.297 67.0128 68.273H56.4658C56.4658 71.195 57.8678 72.875 60.6568 72.875C62.9458 72.875 64.2938 71.168 64.3758 70.121H66.8058L66.8128 70.094ZM64.2428 66.379C64.1018 64.207 63.1648 62.203 60.2158 62.203C57.9818 62.203 56.2158 64.207 56.2158 66.379H64.2428ZM80.3878 74.461H77.9618V65.852C77.9618 63.418 77.2428 62.188 74.8718 62.188C73.4928 62.188 71.0668 63.043 71.0668 66.844V74.457H68.6368V60.441H70.9258V62.418H70.9808C71.5038 61.668 72.8518 60.035 75.3358 60.035C77.5658 60.035 80.3788 60.918 80.3788 64.91V74.414" fill="#5586A4"/>
<path fill-rule="evenodd" clip-rule="evenodd" d="M127.753 74.242C127.753 74.6007 127.657 74.9527 127.475 75.2617C127.293 75.5707 127.032 75.8256 126.718 76C126.397 76.183 126.054 76.27 125.683 76.27C125.312 76.27 124.972 76.18 124.652 76C124.339 75.8231 124.078 75.5673 123.894 75.2581C123.711 74.9508 123.616 74.5996 123.617 74.242C123.617 73.8859 123.713 73.5363 123.894 73.2301C124.078 72.9202 124.34 72.6638 124.654 72.4863C124.968 72.3088 125.323 72.2163 125.683 72.218C126.044 72.216 126.4 72.3084 126.714 72.4858C127.029 72.6633 127.291 72.9199 127.476 73.2301C127.658 73.5363 127.754 73.8859 127.753 74.242ZM127.355 74.242C127.355 73.793 127.191 73.406 126.863 73.09C126.71 72.9342 126.527 72.811 126.325 72.7278C126.123 72.6447 125.906 72.6032 125.687 72.6061C125.468 72.6027 125.25 72.6438 125.048 72.727C124.845 72.8102 124.661 72.9337 124.507 73.09C124.35 73.2372 124.225 73.4158 124.141 73.6143C124.057 73.8127 124.015 74.0266 124.019 74.242C124.015 74.4581 124.057 74.6726 124.141 74.8716C124.225 75.0707 124.35 75.25 124.507 75.398C124.835 75.718 125.226 75.878 125.687 75.878C125.906 75.882 126.122 75.8414 126.325 75.7589C126.527 75.6764 126.71 75.5536 126.863 75.398C127.191 75.078 127.355 74.695 127.355 74.242ZM124.75 73.1601H125.738C126.015 73.1601 126.222 73.2151 126.347 73.3281C126.472 73.4411 126.535 73.586 126.535 73.769C126.538 73.9094 126.486 74.0454 126.39 74.148C126.296 74.253 126.144 74.332 125.937 74.378C126.005 74.3992 126.069 74.4324 126.125 74.476C126.196 74.5415 126.255 74.6182 126.301 74.7031C126.305 74.7071 126.426 74.918 126.66 75.324H126.008L125.582 74.586C125.512 74.504 125.437 74.465 125.367 74.465C125.347 74.465 125.328 74.465 125.297 74.473V75.325H124.746L124.75 73.1601ZM125.301 74.0781H125.539C125.695 74.0781 125.809 74.055 125.875 74.004C125.941 73.953 125.973 73.891 125.973 73.809C125.973 73.727 125.942 73.661 125.879 73.614C125.816 73.567 125.711 73.5361 125.559 73.5361H125.301V74.0781Z" fill="#999999"/>
<path fill-rule="evenodd" clip-rule="evenodd" d="M127.753 73.7191C127.755 74.0754 127.659 74.4254 127.476 74.7311C127.296 75.043 127.034 75.2996 126.718 75.4731C126.403 75.6532 126.046 75.7474 125.683 75.7461C125.316 75.7461 124.972 75.6521 124.652 75.4731C124.332 75.2941 124.082 75.0471 123.894 74.7311C123.711 74.4254 123.615 74.0754 123.617 73.7191C123.617 73.3601 123.711 73.0201 123.894 72.7031C124.077 72.3941 124.338 72.1394 124.652 71.9651C124.972 71.7851 125.316 71.6951 125.683 71.6951C126.05 71.6951 126.402 71.7851 126.718 71.9651C127.034 72.1451 127.292 72.3911 127.476 72.7031C127.66 73.0151 127.753 73.3591 127.753 73.7191ZM127.355 73.7191C127.359 73.5032 127.317 73.289 127.233 73.0904C127.148 72.8919 127.022 72.7135 126.863 72.5671C126.539 72.2431 126.144 72.0831 125.687 72.0831C125.23 72.0831 124.832 72.2431 124.507 72.5671C124.35 72.7143 124.225 72.8928 124.141 73.0913C124.057 73.2897 124.015 73.5036 124.019 73.7191C124.015 73.9351 124.057 74.1496 124.141 74.3487C124.225 74.5477 124.35 74.727 124.507 74.8751C124.662 75.0301 124.846 75.1523 125.048 75.2343C125.251 75.3163 125.469 75.3563 125.687 75.3521C126.148 75.3521 126.539 75.1961 126.863 74.8751C127.187 74.5541 127.355 74.1721 127.355 73.7191ZM124.75 72.6331H125.738C126.015 72.6331 126.222 72.6921 126.347 72.8011C126.472 72.9101 126.535 73.0631 126.535 73.2461C126.535 73.3911 126.488 73.5161 126.39 73.6251C126.296 73.7271 126.144 73.8051 125.937 73.8551C126.005 73.8763 126.069 73.9095 126.125 73.9531C126.195 74.0178 126.254 74.0931 126.301 74.1761C126.305 74.1801 126.426 74.3911 126.66 74.8011H126.008L125.582 74.0631C125.512 73.9811 125.437 73.9381 125.367 73.9381C125.347 73.9381 125.328 73.9421 125.297 73.9461V74.8011H124.746L124.75 72.6331ZM125.301 73.5551H125.539C125.695 73.5551 125.809 73.5281 125.875 73.4771C125.906 73.4546 125.931 73.4252 125.948 73.3913C125.965 73.3575 125.973 73.32 125.973 73.2821C125.974 73.245 125.966 73.2083 125.95 73.175C125.933 73.1418 125.909 73.113 125.879 73.0911C125.817 73.0401 125.711 73.0131 125.559 73.0131H125.301V73.5551Z" fill="#5586A4"/>
</svg>
