<svg width="128" height="128" viewBox="0 0 128 128" fill="none" xmlns="http://www.w3.org/2000/svg">
<path d="M101.652 47.26C108.405 51.224 112.943 58.548 112.958 66.932C112.982 79.554 102.745 89.802 90.0984 89.822C77.4504 89.845 67.1784 79.633 67.1554 67.012C67.1404 58.627 71.6524 51.288 78.3934 47.3L84.9734 58.398C85.0505 58.5338 85.0731 58.6938 85.0367 58.8457C85.0004 58.9975 84.9077 59.1299 84.7774 59.216C83.5069 60.0749 82.467 61.233 81.7493 62.5882C81.0315 63.9435 80.6579 65.4544 80.6614 66.988C80.6714 72.165 84.8864 76.355 90.0744 76.346C95.2634 76.336 99.4614 72.133 99.4524 66.956C99.4507 65.4223 99.072 63.9126 98.3495 62.5597C97.6271 61.2069 96.583 60.0524 95.3094 59.198C95.1794 59.1119 95.0868 58.9799 95.0499 58.8285C95.013 58.677 95.0346 58.5172 95.1104 58.381L101.652 47.26ZM51.1074 47.128C47.691 45.2185 43.8412 44.2188 39.9274 44.225C27.2774 44.225 17.0254 54.455 17.0254 67.077C17.0254 79.697 27.2764 89.927 39.9274 89.927C52.6364 89.927 63.1394 79.161 62.8204 66.49H49.9294C49.766 66.4926 49.6103 66.5597 49.496 66.6765C49.3818 66.7934 49.3183 66.9506 49.3194 67.114C49.2874 72.162 45.0664 76.451 39.9274 76.451C34.7354 76.451 30.5314 72.253 30.5314 67.077C30.5314 61.897 34.7354 57.702 39.9274 57.702C41.2834 57.702 42.5764 57.988 43.7414 58.507C43.8788 58.5698 44.0343 58.5802 44.1789 58.5364C44.3234 58.4926 44.447 58.3975 44.5264 58.269L51.1074 47.128ZM52.9574 43.542C46.2144 39.567 41.6874 32.236 41.6874 23.852C41.6884 11.23 51.9434 1 64.5894 1C77.2354 1 87.4894 11.23 87.4894 23.852C87.4894 32.237 82.9634 39.567 76.2194 43.542L69.6564 32.436C69.5792 32.2998 69.5569 32.1394 69.5941 31.9873C69.6312 31.8353 69.7251 31.7032 69.8564 31.618C71.1275 30.7603 72.1685 29.6036 72.8881 28.2495C73.6077 26.8954 73.9838 25.3854 73.9834 23.852C73.9834 18.675 69.7764 14.477 64.5884 14.477C59.3994 14.477 55.1934 18.675 55.1934 23.852C55.193 25.3855 55.5693 26.8956 56.289 28.2497C57.0088 29.6038 58.0501 30.7604 59.3214 31.618C59.5914 31.8 59.6844 32.158 59.5194 32.436L52.9574 43.542ZM26.1904 102.414C29.1424 102.414 31.1904 103.123 32.3334 104.541C33.4964 105.959 34.0764 108.546 34.0764 112.301C34.0764 116.058 33.4964 118.644 32.3334 120.063C31.1904 121.48 29.1434 122.189 26.1894 122.189C23.2544 122.189 21.2064 121.481 20.0464 120.063C18.9004 118.645 18.3294 116.057 18.3294 112.301C18.3294 108.546 18.9004 105.959 20.0464 104.541C21.2064 103.124 23.2544 102.414 26.1894 102.414H26.1904ZM26.1904 105.37C24.5854 105.37 23.4774 105.868 22.8674 106.861C22.2784 107.837 21.9824 109.651 21.9824 112.301C21.9824 114.954 22.2784 116.775 22.8674 117.771C23.4774 118.747 24.5854 119.234 26.1904 119.234C27.8134 119.234 28.9204 118.747 29.5124 117.771C30.1184 116.775 30.4224 114.954 30.4224 112.301C30.4224 109.651 30.1184 107.837 29.5124 106.861C28.9194 105.868 27.8124 105.37 26.1894 105.37H26.1904ZM39.0364 108.297L39.2564 110.315C39.8864 109.615 40.7154 109.045 41.7494 108.602C42.8004 108.159 43.8244 107.939 44.8194 107.939C47.9024 107.939 49.4434 110.351 49.4434 115.176C49.4434 117.733 49.0174 119.538 48.1704 120.586C47.3394 121.639 46.0304 122.163 44.2394 122.163C42.4114 122.163 40.8444 121.721 39.5344 120.836C39.6084 121.776 39.6374 122.714 39.6174 123.654V127.217H36.2674V108.297H39.0364ZM39.6164 112.384V118.847C41.3514 119.234 42.5614 119.427 43.2434 119.427C44.2784 119.427 44.9864 119.151 45.3734 118.601C45.7804 118.029 45.9834 116.878 45.9834 115.146C45.9834 113.453 45.7974 112.293 45.4284 111.666C45.0804 111.021 44.4624 110.699 43.5744 110.699C42.9644 110.699 42.3674 110.839 41.7754 111.115C41.2044 111.373 40.4844 111.795 39.6164 112.384ZM60.3494 116.474H54.8124C54.9424 117.651 55.2754 118.442 55.8084 118.847C56.3454 119.234 57.2214 119.427 58.4394 119.427C59.8224 119.427 61.4494 119.318 63.3114 119.096L63.6164 121.252C62.3424 121.859 60.4794 122.163 58.0234 122.163C55.5714 122.163 53.8254 121.618 52.7944 120.534C51.7594 119.447 51.2444 117.613 51.2444 115.035C51.2444 112.405 51.7514 110.562 52.7654 109.513C53.7814 108.446 55.4604 107.91 57.8034 107.91C59.9634 107.91 61.5304 108.306 62.5094 109.1C63.4874 109.873 63.9744 111.042 63.9744 112.607C63.9744 115.185 62.7664 116.474 60.3504 116.474H60.3494ZM54.7574 114.124H59.4094C60.2214 114.124 60.6254 113.599 60.6254 112.551C60.6254 111.815 60.4314 111.299 60.0454 111.004C59.6584 110.712 58.9554 110.561 57.9424 110.561C56.7614 110.561 55.9414 110.811 55.4784 111.309C55.0354 111.786 54.7954 112.726 54.7574 114.124ZM68.6844 108.297L68.9074 110.287C71.0114 108.704 72.9674 107.91 74.7754 107.91C75.9744 107.91 76.8964 108.233 77.5414 108.877C78.1894 109.522 78.5114 110.453 78.5114 111.667V121.832H75.1364V112.688C75.1364 111.935 75.0334 111.428 74.8314 111.171C74.6264 110.892 74.2484 110.755 73.6954 110.755C73.0684 110.755 72.4234 110.884 71.7584 111.141C71.1134 111.399 70.2734 111.824 69.2384 112.413V121.832H65.8634V108.296L68.6844 108.297ZM93.9624 118.847L94.2644 121.445C92.7344 121.922 90.7774 122.163 88.3994 122.163C85.5364 122.163 83.5264 121.424 82.3634 119.953C81.2004 118.481 80.6204 115.928 80.6204 112.301C80.6204 108.674 81.2004 106.126 82.3634 104.652C83.5264 103.178 85.5364 102.443 88.3984 102.443C90.5194 102.443 92.3454 102.646 93.8774 103.049L93.5464 105.674C91.8336 105.541 90.1163 105.477 88.3984 105.482C86.8114 105.482 85.7214 105.968 85.1324 106.943C84.5584 107.901 84.2734 109.688 84.2734 112.301C84.2734 114.918 84.5584 116.711 85.1324 117.689C85.7214 118.644 86.8114 119.125 88.3984 119.125C90.7394 119.125 92.5944 119.031 93.9624 118.847ZM111.681 102.775L106.284 120.865C106.1 121.507 105.674 121.832 105.009 121.832H101.747C101.45 121.832 101.18 121.747 100.943 121.582C100.722 121.397 100.566 121.146 100.498 120.865L95.0754 102.775H98.6434L102.546 117.08C102.602 117.302 102.686 117.66 102.798 118.158C102.906 118.636 102.991 118.987 103.046 119.207H103.738C103.847 118.618 104.023 117.909 104.263 117.08L108.109 102.774L111.681 102.775Z" fill="black"/>
</svg>
