<svg width="128" height="128" viewBox="0 0 128 128" fill="none" xmlns="http://www.w3.org/2000/svg">
<path fill-rule="evenodd" clip-rule="evenodd" d="M26.2898 75.031C20.1528 75.031 17.0868 71.386 15.9028 67.578C17.2388 73.769 24.4578 79.808 47.1728 82.488C68.6458 85.031 82.6378 78.64 87.3718 75.66C87.3718 75.66 90.5628 74.297 88.6488 76.406C88.6488 76.406 75.1408 88.535 48.5548 88.691C22.0208 88.816 0.926842 75.828 1.08684 62.648C0.957842 49.523 22.0208 36.504 48.5558 36.609C75.0868 36.734 88.6498 48.89 88.6498 48.89C90.5638 50.995 87.3728 49.64 87.3728 49.64C82.6538 46.671 68.6968 40.82 47.1738 42.812C25.9668 44.796 19.0798 51.792 16.7638 56.464C15.9516 58.0993 15.481 59.8829 15.3808 61.706C15.9508 57.21 18.8298 51.936 26.2518 51.936C34.6498 51.936 37.2318 58.764 37.2318 63.487C37.2318 68.21 34.6578 74.987 26.2518 74.987L26.2898 75.031ZM111.86 70.488H123.055V74.453H107.125V52.555H111.832V70.465L111.86 70.488ZM94.5828 62.664H104.001V74.477H100.864L100.395 71.739C99.1998 73.079 97.4688 75.063 93.3438 75.063C87.9068 75.063 82.9568 71.286 82.9568 63.618C82.9568 57.634 86.3788 52.013 93.9878 52.013C100.879 52.013 103.621 56.372 103.89 59.365H99.1828C99.1828 58.513 97.5778 55.767 94.2528 55.767C90.8938 55.767 87.7918 58.025 87.7918 63.642C87.7918 69.63 91.1508 71.154 94.3578 71.154C95.3928 71.154 98.8458 70.759 99.7958 66.338H94.5538V62.651L94.5828 62.664ZM26.2348 54.633C21.3368 54.633 18.3798 58.379 18.3798 63.559C18.3798 68.707 21.3288 72.485 26.2348 72.485C31.1328 72.485 34.0938 68.735 34.0938 63.559C34.0938 58.407 31.1448 54.633 26.2348 54.633ZM38.9378 60.461H41.2228V62.441H41.2778C41.8598 61.636 42.9578 60.054 45.5788 60.054C49.4108 60.054 52.1448 63.206 52.1448 67.144C52.1448 70.488 50.1568 74.863 45.2538 74.863C43.3238 74.863 42.0588 73.98 41.4218 72.988H41.3668V80.023H38.9408V60.488L38.9378 60.461ZM45.0708 72.856C47.7188 72.856 49.5118 70.626 49.5118 67.551C49.5118 65.75 48.7618 62.192 45.0158 62.192C41.5198 62.192 41.1328 65.86 41.1328 68.13C41.1328 71.845 43.5308 72.841 45.0708 72.841V72.856ZM66.8128 70.094C66.7308 70.766 66.0708 72.746 64.2508 73.922C63.5908 74.352 62.6528 74.891 60.3408 74.891C56.2858 74.891 53.8838 71.918 53.8838 67.852C53.8838 63.516 56.0358 60.082 60.8248 60.082C64.9848 60.082 67.0128 63.297 67.0128 68.273H56.4658C56.4658 71.195 57.8678 72.875 60.6568 72.875C62.9458 72.875 64.2938 71.168 64.3758 70.121H66.8058L66.8128 70.094ZM64.2428 66.379C64.1018 64.207 63.1648 62.203 60.2158 62.203C57.9818 62.203 56.2158 64.207 56.2158 66.379H64.2428ZM80.3878 74.461H77.9618V65.852C77.9618 63.418 77.2428 62.188 74.8718 62.188C73.4928 62.188 71.0668 63.043 71.0668 66.844V74.457H68.6368V60.441H70.9258V62.418H70.9808C71.5038 61.668 72.8518 60.035 75.3358 60.035C77.5658 60.035 80.3788 60.918 80.3788 64.91V74.414M127.755 73.719C127.757 74.0753 127.661 74.4253 127.478 74.731C127.298 75.043 127.036 75.2996 126.72 75.473C126.405 75.6532 126.048 75.7473 125.685 75.746C125.318 75.746 124.974 75.652 124.654 75.473C124.334 75.294 124.084 75.047 123.896 74.731C123.713 74.4253 123.617 74.0753 123.619 73.719C123.619 73.36 123.713 73.02 123.896 72.703C124.078 72.3941 124.34 72.1393 124.654 71.965C124.968 71.7866 125.323 71.6935 125.685 71.695C126.052 71.695 126.404 71.785 126.72 71.965C127.036 72.145 127.294 72.391 127.478 72.703C127.66 73.0105 127.756 73.3616 127.755 73.719ZM127.357 73.719C127.361 73.5032 127.319 73.2889 127.234 73.0904C127.149 72.8918 127.023 72.7135 126.865 72.567C126.541 72.243 126.146 72.083 125.689 72.083C125.232 72.083 124.834 72.243 124.509 72.567C124.351 72.7142 124.227 72.8928 124.143 73.0912C124.059 73.2897 124.017 73.5036 124.021 73.719C124.017 73.9351 124.059 74.1495 124.143 74.3486C124.227 74.5477 124.351 74.727 124.509 74.875C124.663 75.0301 124.847 75.1523 125.05 75.2343C125.253 75.3162 125.47 75.3563 125.689 75.352C126.15 75.352 126.541 75.196 126.865 74.875C127.022 74.7266 127.147 74.5473 127.232 74.3484C127.316 74.1495 127.359 73.9352 127.357 73.719ZM124.752 72.633H125.74C126.017 72.633 126.224 72.692 126.349 72.801C126.474 72.91 126.537 73.063 126.537 73.246C126.537 73.391 126.49 73.516 126.392 73.625C126.298 73.727 126.146 73.805 125.939 73.855C126.007 73.8762 126.071 73.9094 126.127 73.953C126.197 74.0178 126.256 74.093 126.303 74.176C126.424 74.3835 126.544 74.5918 126.662 74.801H126.01L125.584 74.063C125.514 73.981 125.439 73.938 125.369 73.938C125.349 73.938 125.33 73.942 125.299 73.946V74.801H124.748L124.752 72.633ZM125.303 73.555H125.541C125.697 73.555 125.811 73.528 125.877 73.477C125.907 73.4546 125.932 73.4252 125.949 73.3913C125.966 73.3574 125.975 73.32 125.975 73.282C125.976 73.245 125.968 73.2083 125.951 73.175C125.935 73.1417 125.911 73.1129 125.881 73.091C125.819 73.04 125.713 73.013 125.561 73.013H125.303V73.555Z" fill="#5586A4"/>
</svg>
