<svg width="128" height="128" viewBox="0 0 128 128" fill="none" xmlns="http://www.w3.org/2000/svg">
<path fill-rule="evenodd" clip-rule="evenodd" d="M109.435 20.7454C108.827 20.7054 108.219 20.8539 107.648 21.1824C107.077 21.5109 106.553 22.0128 106.106 22.6592C105.208 23.9704 104.673 25.7374 104.638 27.659C104.552 31.6223 106.56 34.9518 109.118 35.097C110.349 35.166 111.548 34.4737 112.454 33.1708C112.899 32.5327 113.258 31.7621 113.51 30.9043C113.762 30.0464 113.901 29.1187 113.919 28.1756C114.009 24.2139 112.001 20.8843 109.435 20.7454ZM110.196 28.5909C109.056 28.5909 108.134 27.6402 108.134 26.4757C108.134 25.2925 109.056 24.3481 110.196 24.3481C111.333 24.3481 112.259 25.2925 112.259 26.4757C112.259 27.6402 111.333 28.5909 110.196 28.5909ZM121.021 37.1528C121.056 37.1091 121.134 37.0061 121.122 36.9093C120.864 34.4211 118.47 22.3657 116.653 19.4638C116.153 18.6771 115.755 17.8966 114.946 17.1645C108.384 11.2562 92.8141 7.6894 92.0861 7.52393C92.0861 7.52393 92.0131 7.50052 91.9621 7.57857C91.9221 7.64101 91.9151 7.75652 91.9151 7.75652L91.8451 13.2933C90.2551 12.4691 78.6961 6.7013 67.8651 6.12218C58.6731 5.62266 45.2941 3.78696 27.5601 20.6346L27.0361 21.1403C18.6921 29.1762 12.9351 39.0978 9.92313 50.6162C8.97813 54.2439 7.70813 62.4266 8.96613 70.1222C9.50913 73.4876 10.5211 76.8718 11.8841 79.897C14.9621 86.7325 20.1341 91.275 25.7001 92.0367C33.5601 93.1216 39.5091 87.6707 41.6261 77.4572C43.0791 70.4078 41.6261 60.0679 36.0481 54.7918C31.5081 50.4945 26.6301 51.4701 23.7981 54.3657C21.3451 56.8835 19.9541 60.7922 19.9781 65.0849C20.0321 72.7025 24.2781 76.7501 27.3331 76.761C28.2201 76.761 29.1101 76.5237 30.1141 76.018C30.4741 75.8541 30.8101 75.6465 31.1811 75.2859L31.2941 75.1829L31.3681 75.1095L31.3451 75.1345C32.0401 74.3961 32.4581 73.2067 32.4581 71.9267C32.4581 71.5786 32.4271 71.2242 32.3601 70.8714C32.1843 69.9409 31.7932 69.1456 31.2629 68.6397C30.7326 68.1338 30.1008 67.9534 29.4901 68.1335L29.3171 68.2006L29.0831 68.3099L28.7431 68.4878C28.0441 68.7563 27.5171 68.7813 27.4031 68.786C27.0441 68.7501 25.2901 67.9384 25.2901 64.9632V64.921C25.2901 63.8283 25.5711 63.0603 25.7281 62.6467C26.2741 61.3167 27.7711 60.018 29.7941 60.2927C32.4461 60.6471 34.3601 62.7497 35.6301 66.7193C36.8061 70.4078 36.4971 74.9456 34.8371 78.2689C33.1851 81.561 30.2471 82.9628 26.3411 82.3118C22.3991 81.6406 19.0671 78.1347 17.2041 72.6775C15.3761 67.3483 15.2781 61.0248 16.9461 56.1639C20.9351 44.53 28.4661 44.6517 32.5991 45.7569C38.7121 47.3897 45.6651 56.1093 48.1341 66.1713C48.5321 67.7745 48.7351 69.0482 48.9111 70.208L49.1771 71.9454L56.0831 77.1591C56.2311 77.2683 56.2831 77.3105 56.3411 77.2371C56.4151 77.1591 56.3721 76.9327 56.3721 76.9327C56.3291 76.6954 56.2281 76.4753 56.0721 73.4876C55.9391 70.834 55.6721 63.5786 58.0361 59.9821C58.9541 58.5788 60.3531 57.3237 61.4581 56.921C65.9811 55.2133 71.2901 56.3903 76.3101 65.3721C78.9071 70.0067 80.1731 72.1218 80.8101 73.0677C80.8101 73.0677 80.9541 73.28 81.0321 73.3784C81.1141 73.4814 81.1691 73.5735 81.2941 73.6765C81.5011 73.8592 89.9231 79.8471 89.9231 79.8471C89.9231 79.8471 90.0211 79.9267 90.0951 79.7862C90.1691 79.6457 90.0991 79.5052 90.0991 79.5052C90.0441 79.4084 84.7631 68.8594 85.7001 60.171C86.4421 53.2496 90.0051 53.8787 94.9351 54.7388C96.5441 55.0307 98.3761 55.3538 100.271 55.4209C105.567 55.4693 111.271 53.9567 114.786 51.5856C117.06 50.0558 118.509 49.0365 119.419 47.7612C119.747 47.3413 119.915 46.6654 120.091 45.9333L120.216 45.451C120.364 44.8531 120.579 43.6043 120.673 42.9222C120.712 42.6225 120.759 42.3228 120.595 42.1339C120.45 41.9575 120.11 42.2681 120.11 42.2681C118.567 43.7073 114.708 46.4266 111.099 46.5421C106.622 46.6826 97.5441 39.5364 96.6061 38.7809C95.9741 36.4629 95.3491 34.1464 94.7081 31.8346C101.2 38.4515 106.587 42.1042 110.708 42.6646C115.298 43.2984 118.876 39.4272 120.427 37.8178C120.63 37.6102 120.833 37.3776 121.021 37.1528ZM102.603 27.6402C102.633 26.2864 102.835 24.9553 103.197 23.7243C103.559 22.4932 104.074 21.3867 104.712 20.4691C106.012 18.5912 107.712 17.6219 109.493 17.714C113.161 17.9153 116.044 22.7013 115.919 28.3661C115.889 29.7189 115.687 31.0489 115.325 32.2789C114.962 33.5088 114.447 34.6142 113.809 35.531C113.168 36.4618 112.415 37.1855 111.594 37.6604C110.772 38.1354 109.899 38.3523 109.024 38.2986C105.36 38.0847 102.481 33.3113 102.603 27.6402Z" fill="#73BA25"/>
<path d="M54.2196 87.1586C51.2936 87.1586 49.6846 90.983 49.6846 93.6273V97.0177C49.6846 100.914 51.7386 103.324 53.6486 103.324H60.3486C61.1916 103.324 61.3686 104.176 61.3686 104.896V107.091C61.3686 107.323 61.3366 109.427 60.3486 109.427H51.2106C50.3006 109.427 49.6446 110.403 49.6446 111.738V112.342C49.6446 113.67 50.3006 114.64 51.2106 114.64H60.8436C63.3636 114.64 64.9876 111.933 64.9876 107.743V104.08C64.9876 100.14 63.1556 98.3773 61.3396 98.3773H54.7456C53.7536 98.3773 53.3046 97.2316 53.3046 96.4152V94.3968C53.3046 93.1215 53.8546 92.3832 54.8156 92.3832H62.1126C63.0076 92.3832 63.6826 91.3904 63.6826 90.0792V89.4751C63.6826 88.1529 62.9956 87.1586 62.0816 87.1586H54.2196ZM81.6106 87.1586C80.7466 87.1586 80.0476 88.2435 80.0476 89.5859V106.921C80.0476 108.31 79.3176 109.427 78.4266 109.427H73.3366C72.4466 109.427 71.7156 108.311 71.7156 106.921V89.5859C71.7156 88.2435 71.0126 87.1586 70.1486 87.1586H69.6566C69.4509 87.1544 69.2468 87.2142 69.0561 87.3344C68.8654 87.4547 68.6919 87.6329 68.5458 87.8589C68.3997 88.0848 68.2838 88.3538 68.205 88.6503C68.1261 88.9468 68.0859 89.2649 68.0866 89.5859V107.573C68.0866 111.769 70.2196 114.805 73.1566 114.805H78.6066C81.5396 114.805 83.6686 111.769 83.6686 107.573V89.5859C83.6686 88.231 82.9806 87.1586 82.1056 87.1586H81.6106ZM91.3606 87.1586C88.4346 87.1586 86.8206 90.983 86.8206 93.6273V97.0177C86.8206 100.914 88.8836 103.324 90.7906 103.324H97.4886C98.3326 103.324 98.5126 104.176 98.5126 104.896V107.091C98.5126 107.323 98.4806 109.427 97.4886 109.427H88.3486C87.4416 109.427 86.7816 110.403 86.7816 111.738V112.342C86.7816 113.67 87.4416 114.64 88.3486 114.64H97.9846C100.505 114.64 102.138 111.933 102.138 107.743V104.08C102.138 100.14 100.298 98.3773 98.4806 98.3773H91.8906C90.8956 98.3773 90.4456 97.2316 90.4456 96.4152V94.3968C90.4456 93.1215 90.9966 92.3832 91.9576 92.3832H99.2576C100.153 92.3832 100.825 91.3904 100.825 90.0792V89.4751C100.825 88.1529 100.142 87.1586 99.2236 87.1586H91.3606ZM105.239 89.4688V112.343C105.239 113.655 105.879 114.641 106.731 114.641H118.521C119.431 114.641 120.087 113.673 120.087 112.343V111.739C120.087 110.397 119.431 109.423 118.521 109.423H108.864V103.602H115.942C116.845 103.602 117.505 102.614 117.505 101.285V100.683C117.505 99.3482 116.845 98.3773 115.942 98.3773H108.864V92.3785H118.032C118.935 92.3785 119.595 91.4154 119.595 90.0729V89.4688C119.595 88.1342 118.935 87.1523 118.032 87.1523L106.762 87.1586C105.896 87.1586 105.239 88.1529 105.239 89.4688ZM6.53156 98.0433C5.05556 98.0433 3.85156 99.8228 3.85156 102.013V110.634C3.85315 111.706 4.12653 112.732 4.61191 113.49C5.09728 114.248 5.75514 114.675 6.44156 114.677H10.0516C10.738 114.675 11.3958 114.248 11.8812 113.49C12.3666 112.732 12.64 111.706 12.6416 110.634V102.013C12.6416 99.8228 11.4376 98.0433 9.96156 98.0433H6.53156ZM5.75056 110.292V102.42C5.75056 101.495 6.24256 100.744 6.84456 100.744H9.65256C10.2426 100.744 10.7426 101.512 10.7426 102.42V110.292C10.7426 111.219 10.2546 111.975 9.65256 111.975H6.82056C6.21956 111.975 5.75056 111.238 5.75056 110.292ZM20.8166 97.9449C19.7736 97.9449 18.9886 98.5178 18.3596 98.9877C17.9776 99.2749 17.6456 99.5184 17.3876 99.5184C17.2706 99.5184 17.1686 99.4403 17.1176 99.3045L16.8756 98.5912C16.8121 98.4306 16.7244 98.2968 16.6202 98.2013C16.5159 98.1058 16.3983 98.0515 16.2776 98.0433H15.9226C15.5786 98.0433 15.3056 98.5178 15.3056 99.0969V120.969C15.3056 121.659 15.6566 122.195 16.0986 122.195H16.4066C16.5105 122.197 16.6137 122.166 16.7102 122.106C16.8066 122.045 16.8944 121.955 16.9685 121.841C17.0426 121.727 17.1015 121.591 17.1419 121.442C17.1822 121.292 17.2032 121.132 17.2036 120.969V113.714C17.2036 113.5 17.2936 113.269 17.3876 113.269C17.6456 113.269 17.9776 113.5 18.3596 113.769C18.9896 114.22 19.7736 114.768 20.8166 114.768H21.1486C22.9886 114.768 24.1376 113.139 24.1376 110.531V102.181C24.1376 99.6027 22.9656 97.9434 21.1486 97.9434L20.8166 97.9449ZM17.2036 110.121V102.592C17.2025 102.346 17.2329 102.103 17.2929 101.876C17.353 101.649 17.4415 101.443 17.5534 101.27C17.6652 101.097 17.798 100.961 17.944 100.87C18.09 100.778 18.2463 100.733 18.4036 100.738H21.0396C21.7116 100.738 22.2396 101.555 22.2396 102.592V110.122C22.2396 111.146 21.6996 111.975 21.0396 111.975H18.4026C17.7426 111.975 17.2036 111.148 17.2036 110.122V110.121ZM26.7976 102.007V110.567C26.7976 112.787 27.9616 114.671 29.3366 114.671H33.0596C33.5196 114.671 33.8556 114.178 33.8556 113.506V113.129C33.8556 112.457 33.5206 111.969 33.0596 111.969H30.0006C29.1456 111.969 28.6916 111.322 28.6916 110.085V107.579H34.2116C35.0986 107.579 35.6216 106.744 35.6216 105.324V102.007C35.6216 99.8165 34.4216 98.037 32.9496 98.037L29.4736 98.0433C27.9966 98.0433 26.7976 99.8165 26.7976 102.007ZM28.6916 102.384C28.6916 101.463 29.1646 100.738 29.7616 100.738H32.6616C33.2586 100.738 33.7236 101.463 33.7236 102.384V105.061H28.6906V102.384H28.6916ZM43.2936 97.9449C42.2586 97.9449 41.4736 98.5178 40.8436 98.9814C40.4496 99.2686 40.1136 99.5184 39.8406 99.5184C39.7196 99.5184 39.6686 99.4934 39.5746 99.2437L39.3596 98.6286C39.2306 98.2384 39.0196 98.0433 38.7306 98.0433H38.4266C38.0556 98.0433 37.7866 98.4881 37.7866 99.0969V113.445C37.7866 114.121 38.1336 114.671 38.5786 114.671H38.8876C39.097 114.672 39.2983 114.543 39.4475 114.314C39.5967 114.084 39.6819 113.772 39.6846 113.445V102.592C39.6846 101.573 40.2236 100.738 40.8796 100.738H43.5166C44.1766 100.738 44.7156 101.573 44.7156 102.592V113.445C44.7156 114.121 45.0626 114.671 45.5086 114.671H45.8166C46.0262 114.672 46.2277 114.544 46.3771 114.315C46.5264 114.085 46.6114 113.773 46.6136 113.445V102.177C46.6136 99.6042 45.4456 97.9465 43.6256 97.9465L43.2936 97.9449ZM122.724 109.109C123.528 109.109 124.169 110.122 124.169 111.383C124.169 112.663 123.529 113.664 122.719 113.664C122.527 113.665 122.337 113.607 122.16 113.493C121.982 113.379 121.821 113.211 121.686 112.999C121.55 112.787 121.443 112.535 121.371 112.258C121.298 111.981 121.261 111.684 121.263 111.385C121.263 110.121 121.915 109.109 122.72 109.109H122.724ZM122.72 109.463C122.071 109.463 121.544 110.322 121.544 111.383C121.544 112.464 122.071 113.311 122.724 113.311C123.376 113.324 123.899 112.464 123.899 111.391C123.899 110.323 123.376 109.463 122.724 109.463H122.72ZM122.442 112.701H122.185V110.172C122.321 110.141 122.45 110.11 122.645 110.11C122.895 110.11 123.06 110.188 123.157 110.305C123.255 110.414 123.306 110.586 123.306 110.829C123.306 111.157 123.161 111.36 122.986 111.446V111.463C123.13 111.507 123.228 111.706 123.263 112.08C123.302 112.476 123.337 112.621 123.364 112.707H123.091C123.051 112.621 123.013 112.39 122.981 112.061C122.942 111.738 122.837 111.616 122.626 111.616H122.446V112.701H122.442ZM122.442 111.299H122.634C122.849 111.299 123.032 111.184 123.032 110.865C123.032 110.647 122.927 110.42 122.634 110.42C122.548 110.42 122.489 110.433 122.442 110.445V111.299Z" fill="#73BA25"/>
</svg>
