<svg width="128" height="128" viewBox="0 0 128 128" fill="none" xmlns="http://www.w3.org/2000/svg">
<path d="M116.246 74.305H119.307C120.12 74.3026 120.9 73.9773 121.474 73.4005C122.048 72.8237 122.369 72.0427 122.368 71.229H126.45C126.45 75.193 123.252 78.402 119.307 78.402H112.164V56.421H116.246V74.305ZM101.96 56.425C98.0108 56.425 94.8128 59.634 94.8128 63.598V78.406H98.9068C98.8977 75.5447 98.894 72.6833 98.8958 69.822H105.021V78.406H109.115C109.107 78.406 109.104 74.007 109.104 69.822V63.598C109.104 59.634 105.906 56.425 101.961 56.425H101.96ZM101.96 60.522C102.773 60.5244 103.553 60.8497 104.127 61.4265C104.701 62.0033 105.022 62.7843 105.021 63.598V65.725H98.8958V63.598C98.895 63.1947 98.9736 62.7953 99.1273 62.4225C99.2809 62.0496 99.5064 61.7107 99.7911 61.4251C100.076 61.1394 100.414 60.9126 100.786 60.7577C101.158 60.6027 101.558 60.5226 101.961 60.522H101.96ZM32.5658 63.594V71.229C32.5658 75.193 29.3678 78.402 25.4228 78.402C24.3624 78.4034 23.3152 78.1677 22.3578 77.712V84.855H18.2758V57.957C18.2758 57.957 19.9488 58.087 21.0008 57.957C22.8118 57.736 22.8718 56.421 25.4218 56.421C29.3668 56.421 32.5648 59.63 32.5648 63.594H32.5658ZM28.4838 63.594C28.4854 62.7803 28.1639 61.9993 27.5899 61.4225C27.0159 60.8457 26.2365 60.5204 25.4228 60.518C25.0195 60.5187 24.6204 60.5987 24.2481 60.7537C23.8758 60.9086 23.5377 61.1354 23.2531 61.4211C22.9684 61.7067 22.7429 62.0456 22.5893 62.4185C22.4357 62.7913 22.357 63.1908 22.3578 63.594V71.229C22.357 71.6322 22.4357 72.0317 22.5893 72.4045C22.7429 72.7774 22.9684 73.1163 23.2531 73.4019C23.5377 73.6876 23.8758 73.9143 24.2481 74.0693C24.6204 74.2242 25.0195 74.3043 25.4228 74.305C26.2365 74.3026 27.0159 73.9773 27.5899 73.4005C28.1639 72.8237 28.4854 72.0427 28.4838 71.229V63.594ZM15.8368 63.594V71.229C15.8368 75.193 12.6388 78.402 8.69378 78.402C4.74878 78.402 1.55078 75.193 1.55078 71.229V63.594C1.55078 59.63 4.74878 56.421 8.69378 56.421C12.6388 56.421 15.8368 59.63 15.8368 63.594ZM11.7548 63.594C11.7548 61.894 10.3868 60.518 8.69378 60.518C7.88009 60.5204 7.10062 60.8457 6.52666 61.4225C5.95269 61.9993 5.63119 62.7803 5.63278 63.594V71.229C5.63119 72.0427 5.95269 72.8237 6.52666 73.4005C7.10062 73.9773 7.88009 74.3026 8.69378 74.305C9.0968 74.3042 9.49571 74.224 9.86771 74.0689C10.2397 73.9139 10.5775 73.6871 10.8618 73.4014C11.1461 73.1157 11.3713 72.7768 11.5245 72.4041C11.6777 72.0313 11.756 71.632 11.7548 71.229V63.594ZM65.4788 78.402H61.3848V63.594C61.3848 61.894 60.0168 60.518 58.3238 60.518C57.5101 60.5204 56.7306 60.8457 56.1567 61.4225C55.5827 61.9993 55.2612 62.7803 55.2628 63.594L55.2738 78.402H51.1798V63.594C51.1798 59.63 54.3778 56.421 58.3228 56.421C62.2678 56.421 65.4658 59.63 65.4658 63.594L65.4768 78.402M41.9198 56.424C37.9748 56.424 34.7768 59.633 34.7768 63.597V71.228C34.7768 75.192 37.9748 78.405 41.9198 78.405C45.8648 78.405 49.0668 75.192 49.0668 71.228H44.9848C44.9856 71.6312 44.9069 72.0307 44.7533 72.4035C44.5997 72.7764 44.3741 73.1153 44.0895 73.4009C43.8049 73.6866 43.4668 73.9133 43.0945 74.0683C42.7222 74.2232 42.323 74.3033 41.9198 74.304C41.1061 74.3016 40.3266 73.9763 39.7527 73.3995C39.1787 72.8227 38.8572 72.0417 38.8588 71.228V69.46H44.9838V65.363H38.8588V63.598C38.8572 62.7843 39.1787 62.0033 39.7527 61.4265C40.3266 60.8497 41.1061 60.5244 41.9198 60.522C42.323 60.5226 42.7222 60.6027 43.0945 60.7577C43.4668 60.9126 43.8049 61.1394 44.0895 61.4251C44.3741 61.7107 44.5997 62.0496 44.7533 62.4225C44.9069 62.7953 44.9856 63.1947 44.9848 63.598H49.0668C49.0668 59.634 45.8648 56.425 41.9198 56.425V56.424ZM80.0168 30.292C76.0718 30.292 72.8738 33.505 72.8738 37.465V56.424H71.3458V57.956H72.8738V78.447C72.8738 82.411 76.0718 85.62 80.0168 85.62C83.9618 85.62 87.1598 82.411 87.1598 78.447V57.957H88.6958V56.425H87.1598V37.466C87.1598 33.506 83.9618 30.293 80.0168 30.293V30.292ZM80.0168 33.623V56.424H75.6788V37.976C75.6769 36.8235 76.1329 35.7175 76.9464 34.9012C77.7599 34.0849 78.8643 33.6251 80.0168 33.623ZM69.3028 36.436L60.2008 36.627L67.6788 41.533L67.8428 41.48V41.56L69.3028 36.436ZM67.8428 41.559L67.8238 41.628L67.6788 41.533L59.1448 44.178L67.6788 46.831L67.8238 46.736L67.8428 46.801V41.559ZM67.8428 46.8V46.884L67.6788 46.831L60.2008 51.737L69.3028 51.924L67.8428 46.8ZM90.7318 36.436L92.1988 41.563V41.479L92.3628 41.532L99.8338 36.626L90.7318 36.436ZM92.3628 41.532L92.2178 41.627L92.1988 41.562V46.8L92.2178 46.735L92.3628 46.83L100.89 44.177L92.3628 41.532ZM92.3628 46.83L92.1988 46.883V46.8L90.7318 51.923L99.8338 51.736L92.3628 46.83ZM77.8518 41.562C77.0058 41.562 76.3158 42.248 76.3158 43.098C76.3158 43.5057 76.4775 43.8968 76.7654 44.1855C77.0534 44.4742 77.444 44.6369 77.8518 44.638C78.6978 44.638 79.3798 43.948 79.3798 43.098C79.3806 42.8967 79.3416 42.6973 79.2652 42.5111C79.1888 42.3249 79.0764 42.1556 78.9345 42.0129C78.7925 41.8703 78.6238 41.757 78.4381 41.6796C78.2523 41.6022 78.053 41.5623 77.8518 41.562ZM82.1898 41.562C83.0318 41.562 83.7178 42.248 83.7178 43.098C83.7178 43.948 83.0318 44.638 82.1898 44.638C81.782 44.6369 81.3914 44.4742 81.1034 44.1855C80.8155 43.8968 80.6538 43.5057 80.6538 43.098C80.6538 42.248 81.3438 41.562 82.1898 41.562ZM77.8518 45.659C77.0058 45.659 76.3158 46.345 76.3158 47.195C76.3158 47.6027 76.4775 47.9938 76.7654 48.2825C77.0534 48.5712 77.444 48.7339 77.8518 48.735C78.6978 48.735 79.3798 48.045 79.3798 47.195C79.3806 46.9937 79.3416 46.7943 79.2652 46.6081C79.1888 46.4219 79.0764 46.2526 78.9345 46.1099C78.7925 45.9673 78.6238 45.854 78.4381 45.7766C78.2523 45.6992 78.053 45.6593 77.8518 45.659ZM82.1898 45.659C83.0318 45.659 83.7178 46.345 83.7178 47.195C83.7178 48.045 83.0318 48.735 82.1898 48.735C81.782 48.7339 81.3914 48.5712 81.1034 48.2825C80.8155 47.9938 80.6538 47.6027 80.6538 47.195C80.6538 46.345 81.3438 45.659 82.1898 45.659ZM77.8518 49.76C77.0058 49.76 76.3158 50.446 76.3158 51.292C76.3166 51.3391 76.3192 51.3861 76.3238 51.433C76.3592 51.8147 76.5352 52.1696 76.8175 52.4288C77.0999 52.6881 77.4685 52.8332 77.8518 52.836C78.2337 52.8352 78.6015 52.6917 78.8829 52.4336C79.1643 52.1754 79.3391 51.8214 79.3728 51.441V51.433C79.3774 51.3861 79.3801 51.3391 79.3808 51.292C79.381 51.0911 79.3417 50.8921 79.2651 50.7063C79.1884 50.5206 79.076 50.3518 78.9341 50.2095C78.7922 50.0673 78.6237 49.9544 78.4381 49.8772C78.2526 49.8001 78.0537 49.7603 77.8528 49.76H77.8518ZM82.1898 49.76C82.3907 49.7603 82.5896 49.8001 82.7751 49.8772C82.9607 49.9544 83.1292 50.0673 83.2711 50.2095C83.413 50.3518 83.5254 50.5206 83.6021 50.7063C83.6787 50.8921 83.718 51.0911 83.7178 51.292C83.717 51.3391 83.7143 51.3861 83.7098 51.433C83.6338 52.218 82.9818 52.836 82.1888 52.836C81.3888 52.836 80.7288 52.222 80.6608 51.441V51.433C80.6561 51.3861 80.6534 51.3391 80.6528 51.292C80.6528 50.446 81.3428 49.76 82.1888 49.76H82.1898ZM68.0258 56.423V78.702C68.0258 85.353 73.3968 90.75 80.0168 90.75C86.6368 90.75 92.0078 85.353 92.0078 78.702V56.424H90.4798V78.703C90.4798 84.504 85.7958 89.208 80.0168 89.208C74.2378 89.208 69.5618 84.505 69.5618 78.703V56.424L68.0258 56.423ZM80.0168 57.955H84.3548V73.289H84.3278L84.3548 73.327V77.68L84.2978 78.378L80.0178 73.29H84.3288L80.0178 68.179H84.3368L80.0178 63.064H84.3478L80.0168 57.955ZM84.2968 78.381C84.1318 79.4228 83.5924 80.3686 82.7798 81.041L80.0168 78.4L84.2968 78.381ZM73.6438 93.606V97.707H86.3978V93.606H73.6438Z" fill="#7D000C"/>
</svg>
