<svg width="128" height="128" viewBox="0 0 128 128" fill="none" xmlns="http://www.w3.org/2000/svg">
<path fill-rule="evenodd" clip-rule="evenodd" d="M35.9709 111.33L117.929 122.518C108.555 106.912 99.4219 91.705 90.2159 76.374L35.9709 111.33ZM125.681 24.947C123.26 28.583 120.834 32.216 118.416 35.854C110.111 48.3462 101.81 60.8412 93.5129 73.339C93.0509 74.035 92.4519 74.587 93.1029 75.66C101.119 88.897 109.072 102.173 117.045 115.437C118.303 117.532 119.575 119.619 121.202 121.629L126.036 25.049L125.681 24.947ZM16.2519 66.22C16.6269 66.575 17.5629 66.782 17.9989 66.567C25.6879 62.788 33.4259 59.093 40.9469 55.003C43.3999 53.67 45.2859 51.28 47.3989 49.342C54.3959 42.925 61.3819 36.495 68.3649 30.064C68.7919 29.669 69.2979 29.287 69.5529 28.789C72.0609 23.887 74.5259 18.96 77.0779 13.891C74.0349 12.747 71.1499 11.628 68.2289 10.61C67.8329 10.472 67.2089 10.746 66.7799 10.985C60.0189 14.762 53.1309 18.338 46.5849 22.457C43.3099 24.518 40.6419 27.555 37.7419 30.2C33.0679 34.466 28.3999 38.742 23.7939 43.082C22.5651 44.2471 21.4629 45.5389 20.5059 46.936C17.3559 51.523 14.2999 56.176 11.1039 60.961C12.8899 62.808 14.5139 64.574 16.2519 66.22ZM44.3539 59.949L32.7979 108.772L87.0979 73.785L44.3539 59.949ZM120.985 25.103L74.8349 32.813L90.4969 70.909C100.718 55.5499 110.737 40.499 120.985 25.103ZM44.9959 56.644L86.8879 70.244C81.6379 57.454 76.5679 45.111 71.3929 32.507L44.9959 56.644ZM16.8309 75.643L2.16889 110.691L30.0939 109.866L16.8309 75.643ZM30.4239 101.739L30.7699 101.663C34.1229 87.722 37.5239 73.877 40.9469 59.391L18.5439 71.035C22.3629 80.961 26.4349 91.432 30.4239 101.739ZM115.351 22.842C110.892 21.661 106.433 20.476 101.972 19.303C95.5599 17.617 89.1429 15.952 82.7349 14.251C81.9339 14.038 81.3549 13.899 80.8839 14.864C78.6189 19.504 76.2839 24.109 73.9829 28.732C73.9119 28.875 73.9269 29.06 73.8719 29.419L115.342 23.134L115.351 22.842ZM89.4819 12.288L125.825 22.342L119.82 5.23195L89.5349 11.947L89.4819 12.288ZM33.5049 114.007C29.0039 113.488 24.3829 113.965 19.8179 114.044C16.0679 114.107 12.3179 114.25 8.56789 114.367C8.18189 114.379 7.79689 114.457 7.41189 114.873C38.4149 117.739 69.4169 120.605 100.419 123.473L100.482 123.059L70.6669 118.989C58.2829 117.298 45.9199 115.438 33.5049 114.007ZM2.78189 99.994C6.77689 90.724 10.7549 81.448 14.7659 72.185C15.1669 71.256 15.1359 70.625 14.3509 69.877C12.6729 68.28 11.1139 66.559 9.27989 64.651C6.80089 76.891 4.38289 88.828 1.96289 100.764L2.23389 100.891C2.41889 100.594 2.64489 100.313 2.78189 99.994ZM81.5219 9.84095C88.2589 8.10295 95.0939 6.74395 101.889 5.22795C102.329 5.12895 102.759 4.98395 103.192 4.85995L103.125 4.52795L73.9309 8.45595C76.6719 9.65295 78.7839 10.547 81.5219 9.84095Z" fill="#D91404"/>
</svg>
