<svg width="128" height="128" viewBox="0 0 128 128" fill="none" xmlns="http://www.w3.org/2000/svg">
<path d="M30.2172 109.422V117.969H25.4932V95.692H31.9842C35.0102 95.692 37.2502 96.243 38.7032 97.345C40.1562 98.448 40.8822 100.121 40.8822 102.365C40.8822 103.676 40.5212 104.842 39.7992 105.862C39.0782 106.883 38.0572 107.684 36.7362 108.263L43.2882 117.968H38.0462L32.7292 109.421H30.2172V109.422ZM30.2172 105.582H31.7412C33.2332 105.582 34.3362 105.332 35.0472 104.835C35.7572 104.337 36.1132 103.555 36.1132 102.489C36.1132 101.432 35.7502 100.681 35.0242 100.234C34.2982 99.787 33.1732 99.563 31.6492 99.563H30.2172V105.582ZM57.7952 117.969L57.1702 115.79H56.9262C56.4282 116.583 55.7212 117.194 54.8082 117.626C53.8932 118.058 52.8512 118.273 51.6842 118.273C49.6822 118.273 48.1752 117.738 47.1582 116.666C46.1422 115.594 45.6342 114.053 45.6342 112.042V100.934H50.2822V110.884C50.2822 112.113 50.5002 113.035 50.9382 113.65C51.3742 114.265 52.0692 114.571 53.0242 114.571C54.3252 114.571 55.2642 114.136 55.8432 113.269C56.4222 112.4 56.7122 110.961 56.7122 108.95V100.935H61.3592V117.97H57.7952V117.969ZM75.7132 100.613C77.7242 100.613 79.2992 101.399 80.4382 102.968C81.5752 104.537 82.1442 106.688 82.1442 109.421C82.1442 112.234 81.5572 114.413 80.3852 115.956C79.2122 117.501 77.6142 118.272 75.5922 118.272C73.5922 118.272 72.0222 117.545 70.8842 116.092H70.5642L69.7882 117.967H66.2372V94.26H70.8842V99.776C70.8842 100.477 70.8222 101.599 70.7002 103.144H70.8842C71.9702 101.458 73.5812 100.613 75.7132 100.613ZM74.2202 104.332C73.0732 104.332 72.2352 104.685 71.7072 105.391C71.1792 106.098 70.9042 107.263 70.8842 108.889V109.391C70.8842 111.22 71.1552 112.53 71.6982 113.323C72.2422 114.115 73.1032 114.511 74.2812 114.511C75.2362 114.511 75.9942 114.071 76.5592 113.193C77.1232 112.315 77.4052 111.037 77.4052 109.361C77.4052 107.685 77.1192 106.427 76.5512 105.589C75.9832 104.751 75.2062 104.332 74.2202 104.332ZM83.2412 100.934H88.3292L91.5442 110.518C91.8192 111.351 92.0072 112.336 92.1082 113.474H92.2002C92.3112 112.428 92.5292 111.442 92.8542 110.518L96.0082 100.934H100.991L93.7842 120.148C93.1232 121.925 92.1822 123.256 90.9582 124.14C89.7332 125.024 88.3042 125.465 86.6682 125.465C85.8652 125.465 85.0782 125.379 84.3072 125.206V121.519C84.9069 121.655 85.5203 121.721 86.1352 121.716C86.9572 121.716 87.6762 121.465 88.2912 120.962C88.9062 120.46 89.3862 119.701 89.7312 118.685L90.0052 117.846L83.2412 100.934Z" fill="black"/>
<path d="M87.5242 58.767L38.6382 87.795L101.938 83.501L106.813 19.673L87.5242 58.767Z" fill="url(#paint0_linear_3_7454)"/>
<path d="M102.041 83.457L96.6002 45.905L81.7822 65.475L102.041 83.457Z" fill="url(#paint1_linear_3_7454)"/>
<path d="M102.114 83.457L62.2561 80.328L38.8511 87.713L102.114 83.457Z" fill="url(#paint2_linear_3_7454)"/>
<path d="M38.9061 87.722L48.8631 55.1021L26.9531 59.788L38.9061 87.722Z" fill="url(#paint3_linear_3_7454)"/>
<path d="M81.777 65.5819L72.615 29.6949L46.396 54.2719L81.777 65.5819Z" fill="url(#paint4_linear_3_7454)"/>
<path d="M104.734 30.201L79.9489 9.95801L73.0479 32.271L104.734 30.201Z" fill="url(#paint5_linear_3_7454)"/>
<path d="M93.1421 2.74106L78.5661 10.7971L69.3691 2.63306L93.1421 2.74106Z" fill="url(#paint6_linear_3_7454)"/>
<path d="M21.188 70.7301L27.295 59.593L22.354 46.326L21.188 70.7301Z" fill="url(#paint7_linear_3_7454)"/>
<path d="M22.0259 45.905L26.9959 60.003L48.5909 55.158L73.2459 32.245L80.2039 10.145L69.2489 2.40796L50.6219 9.37896C44.7539 14.837 33.3659 25.637 32.9549 25.84C32.5489 26.048 25.4359 39.493 22.0259 45.905Z" fill="white"/>
<path d="M39.4769 20.581C52.1959 7.96998 68.5919 0.519984 74.8839 6.86898C81.1729 13.217 74.5039 28.645 61.7849 41.251C49.0669 53.858 32.8729 61.719 26.5859 55.37C20.2919 49.026 26.7589 33.187 39.4769 20.581Z" fill="url(#paint8_linear_3_7454)"/>
<path d="M38.9058 87.709L48.7848 54.985L81.5958 65.526C69.7318 76.651 56.5378 86.054 38.9058 87.709Z" fill="url(#paint9_linear_3_7454)"/>
<path d="M73.2891 32.181L81.7121 65.544C91.6221 55.125 100.516 43.923 104.871 30.068L73.2891 32.181Z" fill="url(#paint10_linear_3_7454)"/>
<path d="M104.785 30.236C108.156 20.062 108.933 5.46803 93.0391 2.75903L79.9961 9.96303L104.785 30.236Z" fill="url(#paint11_linear_3_7454)"/>
<path d="M21.188 70.583C21.655 87.372 33.769 87.623 38.929 87.771L27.009 59.934L21.188 70.583Z" fill="#9E1209"/>
<path d="M73.3369 32.232C80.9519 36.912 96.2969 46.312 96.6079 46.485C97.0919 46.757 103.225 36.143 104.616 30.145L73.3369 32.232Z" fill="url(#paint12_radial_3_7454)"/>
<path d="M48.772 54.986L61.979 80.466C69.789 76.231 75.903 71.071 81.505 65.544L48.772 54.986Z" fill="url(#paint13_radial_3_7454)"/>
<path d="M26.957 59.969L25.085 82.251C28.617 87.074 33.474 87.492 38.57 87.117C34.883 77.942 27.519 59.596 26.957 59.969Z" fill="url(#paint14_linear_3_7454)"/>
<path d="M79.9189 10.0199L106.156 13.7029C104.755 7.76794 100.455 3.93994 93.1259 2.74194L79.9189 10.0199Z" fill="url(#paint15_linear_3_7454)"/>
<defs>
<linearGradient id="paint0_linear_3_7454" x1="96.4172" y1="95.561" x2="78.3542" y2="63.669" gradientUnits="userSpaceOnUse">
<stop stop-color="#FB7655"/>
<stop offset="0.41" stop-color="#E42B1E"/>
<stop offset="0.99" stop-color="#990000"/>
<stop offset="1" stop-color="#990000"/>
</linearGradient>
<linearGradient id="paint1_linear_3_7454" x1="105.413" y1="68.771" x2="82.1342" y2="53.15" gradientUnits="userSpaceOnUse">
<stop stop-color="#871101"/>
<stop offset="0.99" stop-color="#911209"/>
<stop offset="1" stop-color="#911209"/>
</linearGradient>
<linearGradient id="paint2_linear_3_7454" x1="86.7871" y1="96.528" x2="63.5081" y2="80.907" gradientUnits="userSpaceOnUse">
<stop stop-color="#871101"/>
<stop offset="0.99" stop-color="#911209"/>
<stop offset="1" stop-color="#911209"/>
</linearGradient>
<linearGradient id="paint3_linear_3_7454" x1="37.9111" y1="57.4601" x2="41.5201" y2="80.9141" gradientUnits="userSpaceOnUse">
<stop stop-color="white"/>
<stop offset="0.23" stop-color="#E57252"/>
<stop offset="0.46" stop-color="#DE3B20"/>
<stop offset="0.99" stop-color="#A60003"/>
<stop offset="1" stop-color="#A60003"/>
</linearGradient>
<linearGradient id="paint4_linear_3_7454" x1="62.733" y1="35.5609" x2="64.063" y2="59.4979" gradientUnits="userSpaceOnUse">
<stop stop-color="white"/>
<stop offset="0.23" stop-color="#E4714E"/>
<stop offset="0.56" stop-color="#BE1A0D"/>
<stop offset="0.99" stop-color="#A80D00"/>
<stop offset="1" stop-color="#A80D00"/>
</linearGradient>
<linearGradient id="paint5_linear_3_7454" x1="84.7609" y1="13.437" x2="88.7419" y2="30.593" gradientUnits="userSpaceOnUse">
<stop stop-color="white"/>
<stop offset="0.18" stop-color="#E46342"/>
<stop offset="0.4" stop-color="#C82410"/>
<stop offset="0.99" stop-color="#A80D00"/>
<stop offset="1" stop-color="#A80D00"/>
</linearGradient>
<linearGradient id="paint6_linear_3_7454" x1="72.6051" y1="7.39606" x2="89.7581" y2="-1.17994" gradientUnits="userSpaceOnUse">
<stop stop-color="white"/>
<stop offset="0.54" stop-color="#C81F11"/>
<stop offset="0.99" stop-color="#BF0905"/>
<stop offset="1" stop-color="#BF0905"/>
</linearGradient>
<linearGradient id="paint7_linear_3_7454" x1="22.875" y1="51.4821" x2="24.287" y2="65.6181" gradientUnits="userSpaceOnUse">
<stop stop-color="white"/>
<stop offset="0.31" stop-color="#DE4024"/>
<stop offset="0.99" stop-color="#BF190B"/>
<stop offset="1" stop-color="#BF190B"/>
</linearGradient>
<linearGradient id="paint8_linear_3_7454" x1="13.1689" y1="69.437" x2="79.5359" y2="1.19398" gradientUnits="userSpaceOnUse">
<stop stop-color="#BD0012"/>
<stop offset="0.07" stop-color="white"/>
<stop offset="0.17" stop-color="white"/>
<stop offset="0.27" stop-color="#C82F1C"/>
<stop offset="0.33" stop-color="#820C01"/>
<stop offset="0.46" stop-color="#A31601"/>
<stop offset="0.72" stop-color="#B31301"/>
<stop offset="0.99" stop-color="#E82609"/>
<stop offset="1" stop-color="#E82609"/>
</linearGradient>
<linearGradient id="paint9_linear_3_7454" x1="64.0048" y1="76.323" x2="44.0138" y2="71.389" gradientUnits="userSpaceOnUse">
<stop stop-color="#8C0C01"/>
<stop offset="0.54" stop-color="#990C00"/>
<stop offset="0.99" stop-color="#A80D0E"/>
<stop offset="1" stop-color="#A80D0E"/>
</linearGradient>
<linearGradient id="paint10_linear_3_7454" x1="98.3391" y1="52.33" x2="80.5801" y2="36.414" gradientUnits="userSpaceOnUse">
<stop stop-color="#7E110B"/>
<stop offset="0.99" stop-color="#9E0C00"/>
<stop offset="1" stop-color="#9E0C00"/>
</linearGradient>
<linearGradient id="paint11_linear_3_7454" x1="104.864" y1="23.126" x2="96.0181" y2="13.669" gradientUnits="userSpaceOnUse">
<stop stop-color="#79130D"/>
<stop offset="0.99" stop-color="#9E120B"/>
<stop offset="1" stop-color="#9E120B"/>
</linearGradient>
<radialGradient id="paint12_radial_3_7454" cx="0" cy="0" r="1" gradientUnits="userSpaceOnUse" gradientTransform="translate(83.3469 36.719) scale(21.762 21.762)">
<stop stop-color="#A80D00"/>
<stop offset="0.99" stop-color="#7E0E08"/>
<stop offset="1" stop-color="#7E0E08"/>
</radialGradient>
<radialGradient id="paint13_radial_3_7454" cx="0" cy="0" r="1" gradientUnits="userSpaceOnUse" gradientTransform="translate(53.207 65.398) scale(28.932 28.932)">
<stop stop-color="#A30C00"/>
<stop offset="0.99" stop-color="#800E08"/>
<stop offset="1" stop-color="#800E08"/>
</radialGradient>
<linearGradient id="paint14_linear_3_7454" x1="32.714" y1="87.691" x2="25.505" y2="63.234" gradientUnits="userSpaceOnUse">
<stop stop-color="#8B2114"/>
<stop offset="0.43" stop-color="#9E100A"/>
<stop offset="0.99" stop-color="#B3100C"/>
<stop offset="1" stop-color="#B3100C"/>
</linearGradient>
<linearGradient id="paint15_linear_3_7454" x1="88.0179" y1="6.64394" x2="104.18" y2="13.7779" gradientUnits="userSpaceOnUse">
<stop stop-color="#B31000"/>
<stop offset="0.44" stop-color="#910F08"/>
<stop offset="0.99" stop-color="#791C12"/>
<stop offset="1" stop-color="#791C12"/>
</linearGradient>
</defs>
</svg>
