<svg width="128" height="128" viewBox="0 0 128 128" fill="none" xmlns="http://www.w3.org/2000/svg">
<path d="M82.518 54.655C69.598 62.981 56.796 71.232 43.656 79.698L102.371 87.714L82.518 54.655ZM107.927 17.812C106.192 20.416 104.454 23.019 102.722 25.625C96.7719 34.5746 90.8248 43.5263 84.881 52.48C84.55 52.98 84.121 53.376 84.587 54.144C90.331 63.627 96.028 73.14 101.739 82.642C102.64 84.143 103.552 85.638 104.718 87.078L108.181 17.887L107.927 17.812ZM29.529 47.38C29.798 47.635 30.469 47.782 30.78 47.629C36.289 44.921 41.833 42.274 47.222 39.343C48.978 38.389 50.328 36.676 51.843 35.288C56.8548 30.6892 61.8618 26.0852 66.864 21.476C67.171 21.193 67.532 20.92 67.716 20.563C69.513 17.05 71.278 13.521 73.107 9.88801C70.926 9.07101 68.859 8.26801 66.767 7.53801C66.483 7.43901 66.037 7.63601 65.727 7.80801C60.884 10.514 55.95 13.075 51.26 16.026C48.913 17.502 47.001 19.677 44.923 21.573C41.576 24.629 38.231 27.692 34.931 30.802C34.0505 31.6361 33.2611 32.5613 32.576 33.562C30.318 36.848 28.13 40.181 25.839 43.61C27.121 44.936 28.284 46.202 29.529 47.38ZM49.662 42.887C46.923 54.464 44.197 65.975 41.383 77.865L80.284 52.8L49.662 42.887ZM71.499 23.446L82.719 50.738C90.043 39.737 97.221 28.953 104.562 17.923L71.499 23.446ZM50.122 40.519L80.134 50.262C76.373 41.099 72.741 32.257 69.033 23.227L50.122 40.519ZM29.944 54.131L19.44 79.24L39.445 78.649L29.944 54.131ZM39.683 72.826L39.931 72.772C42.332 62.784 44.769 52.865 47.222 42.488L31.172 50.829C33.907 57.941 36.825 65.441 39.683 72.826ZM100.525 16.304C97.33 15.458 94.138 14.608 90.94 13.768C86.347 12.561 81.75 11.367 77.159 10.148C76.586 9.99601 76.17 9.89701 75.833 10.588C74.211 13.912 72.537 17.212 70.889 20.523C70.838 20.626 70.848 20.76 70.809 21.015L100.519 16.513L100.525 16.304ZM81.993 8.74201L108.03 15.945L103.728 3.68701L82.032 8.49801L81.993 8.74201ZM89.875 88.1L68.514 85.184C59.641 83.973 50.784 82.64 41.891 81.615C38.666 81.244 35.355 81.586 32.085 81.641C29.398 81.687 26.711 81.789 24.025 81.874C23.748 81.882 23.472 81.938 23.197 82.235C45.407 84.289 67.619 86.342 89.828 88.397L89.875 88.1ZM19.878 71.576C22.742 64.935 25.59 58.289 28.464 51.654C28.752 50.987 28.731 50.536 28.168 50.001C26.965 48.856 25.849 47.623 24.534 46.257L19.293 72.128L19.486 72.22C19.619 72.006 19.78 71.806 19.878 71.576ZM76.29 6.98901C81.117 5.74301 86.014 4.77101 90.882 3.68401C91.196 3.61301 91.504 3.50901 91.814 3.42001L91.767 3.18201L70.851 5.99501C72.816 6.85401 74.329 7.49501 76.29 6.98901ZM30.975 109.422V117.969H26.251V95.692H32.742C35.768 95.692 38.008 96.243 39.461 97.345C40.914 98.447 41.641 100.121 41.641 102.365C41.641 103.676 41.28 104.842 40.558 105.862C39.837 106.883 38.817 107.684 37.495 108.263L44.048 117.968H38.806L33.489 109.421H30.975V109.422ZM30.975 105.582H32.499C33.991 105.582 35.094 105.332 35.805 104.835C36.515 104.337 36.871 103.555 36.871 102.489C36.871 101.432 36.508 100.681 35.781 100.234C35.055 99.787 33.93 99.563 32.407 99.563H30.974V105.582H30.975ZM58.553 117.969L57.929 115.79H57.685C57.187 116.583 56.481 117.194 55.568 117.626C54.653 118.058 53.611 118.273 52.444 118.273C50.442 118.273 48.934 117.738 47.918 116.666C46.902 115.594 46.395 114.053 46.395 112.042V100.934H51.042V110.884C51.042 112.113 51.261 113.035 51.698 113.65C52.134 114.265 52.829 114.571 53.784 114.571C55.085 114.571 56.024 114.136 56.603 113.269C57.182 112.4 57.472 110.961 57.472 108.95V100.935H62.119V117.97H58.553V117.969ZM76.472 100.613C78.483 100.613 80.058 101.399 81.197 102.968C82.334 104.537 82.902 106.688 82.902 109.421C82.902 112.234 82.315 114.413 81.143 115.956C79.969 117.501 78.372 118.272 76.35 118.272C74.349 118.272 72.78 117.545 71.642 116.092H71.322L70.546 117.967H66.995V94.26H71.642V99.776C71.642 100.477 71.58 101.599 71.458 103.144H71.642C72.728 101.458 74.339 100.613 76.472 100.613ZM74.978 104.332C73.831 104.332 72.993 104.685 72.465 105.391C71.937 106.098 71.661 107.263 71.642 108.889V109.391C71.642 111.22 71.913 112.53 72.456 113.323C73 114.115 73.861 114.511 75.04 114.511C75.994 114.511 76.753 114.071 77.317 113.193C77.881 112.315 78.163 111.037 78.163 109.361C78.163 107.685 77.878 106.427 77.309 105.589C76.741 104.751 75.964 104.332 74.978 104.332ZM83.999 100.934H89.088L92.303 110.518C92.577 111.351 92.766 112.336 92.866 113.474H92.958C93.069 112.428 93.287 111.442 93.612 110.518L96.766 100.934H101.748L94.541 120.148C93.881 121.925 92.939 123.256 91.716 124.14C90.491 125.024 89.062 125.465 87.426 125.465C86.623 125.465 85.836 125.379 85.065 125.206V121.519C85.6647 121.655 86.2781 121.721 86.893 121.716C87.715 121.716 88.434 121.465 89.049 120.962C89.664 120.46 90.144 119.701 90.488 118.685L90.762 117.846L83.999 100.934Z" fill="#D91404"/>
</svg>
